<mxfile host="app.diagrams.net" modified="2023-05-19T14:25:30.359Z" agent="Mozilla/5.0 (Windows NT 10.0; Win64; x64) AppleWebKit/537.36 (KHTML, like Gecko) Chrome/113.0.0.0 Safari/537.36" etag="kdMb8NrePhjZQC0Fse0I" version="21.3.2" type="device">
  <diagram name="Page-1" id="d4Hbmf0yIoYbgDcGOjci">
    <mxGraphModel dx="1050" dy="657" grid="1" gridSize="10" guides="1" tooltips="1" connect="1" arrows="1" fold="1" page="1" pageScale="1" pageWidth="850" pageHeight="1100" math="0" shadow="0">
      <root>
        <mxCell id="0" />
        <mxCell id="1" parent="0" />
        <mxCell id="Ir4jc1fTkctNNqH5izcn-2" value="&lt;font color=&quot;#ffff00&quot; style=&quot;font-size: 22px;&quot;&gt;&lt;b style=&quot;&quot;&gt;(1267, 1193), &lt;br&gt;(1373, 1520)&amp;nbsp;&lt;/b&gt;&lt;/font&gt;" style="text;html=1;align=center;verticalAlign=middle;resizable=0;points=[];autosize=1;strokeColor=none;fillColor=none;" vertex="1" parent="1">
          <mxGeometry x="630" y="530" width="150" height="70" as="geometry" />
        </mxCell>
        <mxCell id="Ir4jc1fTkctNNqH5izcn-3" value="&lt;font color=&quot;#ffff00&quot; style=&quot;font-size: 19px;&quot;&gt;&lt;b style=&quot;&quot;&gt;(1184, 841), &lt;br&gt;(1207, 923)&amp;nbsp;&lt;/b&gt;&lt;/font&gt;" style="text;html=1;align=center;verticalAlign=middle;resizable=0;points=[];autosize=1;strokeColor=none;fillColor=none;" vertex="1" parent="1">
          <mxGeometry x="547.5" y="345" width="130" height="60" as="geometry" />
        </mxCell>
        <mxCell id="Ir4jc1fTkctNNqH5izcn-4" value="&lt;font color=&quot;#ffff00&quot; style=&quot;font-size: 20px;&quot;&gt;&lt;b style=&quot;&quot;&gt;(1758,&amp;nbsp; 913), &lt;br&gt;(1796, 1042)&lt;/b&gt;&lt;/font&gt;" style="text;html=1;align=center;verticalAlign=middle;resizable=0;points=[];autosize=1;strokeColor=none;fillColor=none;" vertex="1" parent="1">
          <mxGeometry x="753" y="355" width="140" height="60" as="geometry" />
        </mxCell>
        <mxCell id="Ir4jc1fTkctNNqH5izcn-5" value="&lt;font color=&quot;#ff0000&quot;&gt;&lt;span style=&quot;font-size: 24px;&quot;&gt;&lt;b&gt;Box 4&lt;/b&gt;&lt;/span&gt;&lt;/font&gt;" style="text;html=1;align=center;verticalAlign=middle;resizable=0;points=[];autosize=1;strokeColor=none;fillColor=none;" vertex="1" parent="1">
          <mxGeometry x="480" y="600" width="90" height="40" as="geometry" />
        </mxCell>
        <mxCell id="Ir4jc1fTkctNNqH5izcn-6" value="&lt;font color=&quot;#ff0000&quot;&gt;&lt;span style=&quot;font-size: 24px;&quot;&gt;&lt;b&gt;Box 6&lt;/b&gt;&lt;/span&gt;&lt;/font&gt;" style="text;html=1;align=center;verticalAlign=middle;resizable=0;points=[];autosize=1;strokeColor=none;fillColor=none;" vertex="1" parent="1">
          <mxGeometry x="460" y="386" width="90" height="40" as="geometry" />
        </mxCell>
        <mxCell id="Ir4jc1fTkctNNqH5izcn-7" value="&lt;font color=&quot;#ff0000&quot;&gt;&lt;span style=&quot;font-size: 24px;&quot;&gt;&lt;b&gt;Box 5&lt;/b&gt;&lt;/span&gt;&lt;/font&gt;" style="text;html=1;align=center;verticalAlign=middle;resizable=0;points=[];autosize=1;strokeColor=none;fillColor=none;" vertex="1" parent="1">
          <mxGeometry x="716" y="426" width="90" height="40" as="geometry" />
        </mxCell>
      </root>
    </mxGraphModel>
  </diagram>
</mxfile>
